<svg xmlns="http://www.w3.org/2000/svg" xmlns:xlink="http://www.w3.org/1999/xlink" width="50" height="50"><defs><path id="a" d="M25 5c11.046 0 20 8.954 20 20s-8.954 20-20 20S5 36.046 5 25 13.954 5 25 5zm0 36.364c9.023 0 16.364-7.341 16.364-16.364S34.023 8.636 25 8.636 8.636 15.977 8.636 25 15.977 41.364 25 41.364zm7.913-18.118c.934.368 1.601 1.215 1.88 2.386.276 1.167.452 2.659-.662 3.854-1.067 1.143-2.409 1.64-3.053 1.88l-.053.019c-.297.11-.834.283-1.436.461l-.406.12.923 3.526-1.464.347-.913-3.49-2.656.63.913 3.491-1.464.348-.913-3.49-4.52 1.073-.141-1.885 1.03-.244c.527-.126.838-.253 1.078-.602.193-.281.236-.63.129-1.04l-2.365-9.037c-.162-.619-.296-.876-.774-1.178-.377-.239-.966-.265-1.751-.079l-.915.218-.38-1.452 4.6-1.093-.915-3.5 1.464-.348.916 3.5 2.655-.631-.916-3.5 1.465-.348.92 3.518.416-.074c1.808-.32 3.074-.267 4.234.177 1.414.542 1.812 1.961 1.918 2.546.07.387.071 1.16-.142 1.67-.18.43-.765 1.02-.975 1.212l-.844.766 1.17-.045c.01 0 1.109-.036 1.947.294zm-2.601 5.877c.522-.454 1.179-1.205.848-2.468-.246-.94-.915-1.527-1.99-1.746-.584-.12-1.705-.15-2.89.055-.358.063-.775.15-1.238.26a35.06 35.06 0 0 0-1.458.38l-.41.12 1.432 5.471.437-.094c.112-.025.411-.091.79-.182a29.776 29.776 0 0 0 1.823-.484c1.07-.333 2.137-.86 2.656-1.312zm-8.806-9.774l1.304 4.985.431-.09c.088-.018.55-.116 1.076-.24.339-.082.64-.158.896-.229.973-.268 1.866-.713 2.451-1.22.73-.634.965-1.416.7-2.325-.286-.983-1.212-1.628-2.416-1.683-1.062-.049-1.725.077-2.545.26-.759.17-1.5.412-1.506.414l-.39.128z"/></defs><use fill="#FFF" xlink:href="#a" fill-rule="evenodd"/></svg>